<svg width="24" height="25" viewBox="0 0 24 25" fill="none" xmlns="http://www.w3.org/2000/svg">
<g id="email-fill">
<g id="Clip path group">
<g id="Group">
<path id="Vector" d="M20 4.96484H4C2.9 4.96484 2 5.86484 2 6.96484V18.9648C2 20.0648 2.88999 20.9648 3.98999 20.9648H19.99C21.09 20.9648 21.99 20.0648 21.99 18.9648V6.96484C21.99 5.86484 21.09 4.96484 19.99 4.96484H20ZM19.6 9.21484L12.53 13.6349C12.21 13.8349 11.79 13.8349 11.47 13.6349L4.39999 9.21484C4.14999 9.05484 4 8.78487 4 8.49487C4 7.82487 4.72999 7.4249 5.29999 7.7749L12 11.9648L18.7 7.7749C19.27 7.4249 20 7.82487 20 8.49487C20 8.78487 19.85 9.05484 19.6 9.21484Z" fill="#BBBCBD"/>
</g>
</g>
</g>
</svg>
