<svg width="44" height="44" viewBox="0 0 44 44" fill="none" xmlns="http://www.w3.org/2000/svg">
<rect width="44" height="44" rx="8" fill="white"/>
<path d="M28.1714 17.8602L24.8714 17.38L23.3914 14.3982C22.8214 13.2475 21.1714 13.2475 20.6014 14.3982L19.1214 17.38L15.8214 17.8602C14.5514 18.0403 14.0414 19.6113 14.9614 20.5018L17.3514 22.8232L16.7914 26.1052C16.5714 27.3759 17.9114 28.3365 19.0514 27.7361L22.0014 26.1852L24.9514 27.7361C26.0914 28.3365 27.4214 27.3659 27.2114 26.1052L26.6514 22.8232L29.0414 20.5018C29.9614 19.6013 29.4514 18.0403 28.1814 17.8602H28.1714Z" fill="#282B30"/>
<path d="M17.2612 13.869L16.4612 12.7784C16.2412 12.4782 15.8312 12.4182 15.5312 12.6283C15.2312 12.8484 15.1712 13.2587 15.3812 13.5589L16.1812 14.6495C16.4012 14.9497 16.8112 15.0097 17.1112 14.7996C17.4112 14.5795 17.4712 14.1692 17.2612 13.869Z" fill="#FB813E"/>
<path d="M14.6212 23.6763C14.5112 23.3261 14.1312 23.136 13.7812 23.246L12.4612 23.6763C12.1112 23.7864 11.9212 24.1666 12.0312 24.5168C12.1412 24.867 12.5212 25.0571 12.8712 24.9471L14.1912 24.5168C14.5412 24.4067 14.7312 24.0265 14.6212 23.6763Z" fill="#FB813E"/>
<path d="M28.471 12.6287C28.171 12.4086 27.761 12.4786 27.541 12.7788L26.741 13.8695C26.521 14.1697 26.591 14.5799 26.891 14.8C27.191 15.0202 27.601 14.9501 27.821 14.6499L28.621 13.5593C28.841 13.2591 28.771 12.8489 28.471 12.6287Z" fill="#FB813E"/>
<path d="M31.5413 23.6763L30.2213 23.246C29.8713 23.136 29.4913 23.3261 29.3813 23.6763C29.2713 24.0265 29.4613 24.3967 29.8113 24.5168L31.1313 24.9471C31.4813 25.0571 31.8613 24.867 31.9713 24.5168C32.0813 24.1666 31.8913 23.7964 31.5413 23.6763Z" fill="#FB813E"/>
<path d="M22.0011 28.8281C21.6311 28.8281 21.3311 29.1283 21.3311 29.4885V30.8393C21.3311 31.2095 21.6311 31.4997 22.0011 31.4997C22.3711 31.4997 22.6711 31.1995 22.6711 30.8393V29.4885C22.6711 29.1183 22.3711 28.8281 22.0011 28.8281Z" fill="#FB813E"/>
</svg>
