<svg width="44" height="44" viewBox="0 0 44 44" fill="none" xmlns="http://www.w3.org/2000/svg">
<rect width="44" height="44" rx="8" fill="#FFF6F3"/>
<g clip-path="url(#clip0_6639_33683)">
<path d="M32.0002 23.9434V31.0045C32.0002 31.5515 31.5502 31.9991 31.0002 31.9991H21.4702C20.9202 31.9991 20.4702 31.5515 20.4702 31.0045C20.4702 30.4575 20.9202 30.01 21.4702 30.01H30.0002V24.3909L26.9702 21.6957C26.8402 21.7355 26.7002 21.7554 26.5602 21.7554C25.5502 21.7554 24.7202 20.9299 24.7202 19.9255C24.7202 18.921 25.5502 18.1055 26.5602 18.1055C27.5702 18.1055 28.3902 18.911 28.3902 19.9255C28.3902 20.0249 28.3802 20.1343 28.3602 20.2338C28.3602 20.2437 28.3602 20.2537 28.3602 20.2636L31.6702 23.2074C31.8902 23.3964 32.0102 23.6649 32.0102 23.9434H32.0002Z" fill="#FB813E"/>
<path d="M24.0799 16.8135C24.0799 18.1164 23.5899 19.2999 22.6599 20.2148C21.7399 21.1298 20.5599 21.6271 19.2399 21.6271C17.9199 21.6271 16.7399 21.1298 15.8199 20.2049C14.8999 19.2999 14.3999 18.1164 14.3999 16.8135C14.3999 15.5107 14.8999 14.3272 15.8299 13.4023C16.7399 12.4873 17.9299 12 19.2399 12C20.5499 12 21.7399 12.4873 22.6699 13.4122C23.5999 14.3371 24.0799 15.5007 24.0799 16.8135Z" fill="black"/>
<path d="M26.48 28.1205C26.48 29.2542 26.08 30.2289 25.33 30.935C24.6 31.6312 23.62 31.9991 22.52 31.9991H15.95C14.86 31.9991 13.89 31.6312 13.16 30.9449C12.4 30.2289 12 29.2542 12 28.1205C12 27.8022 12 27.5039 12.04 27.2055C12.06 26.8972 12.1 26.569 12.15 26.211C12.23 25.8132 12.32 25.4551 12.42 25.1269C12.53 24.7788 12.69 24.4109 12.91 24.033C13.15 23.6152 13.42 23.2672 13.72 22.9887C14.09 22.6307 14.53 22.3621 15.01 22.1732C15.45 21.9942 15.98 21.8947 16.55 21.8947C17.12 21.8947 17.56 22.1235 17.94 22.382L18.47 22.7102C18.47 22.7102 18.6 22.7898 18.83 22.8594C19.11 22.9489 19.38 22.9489 19.65 22.8594C19.89 22.7798 19.98 22.7202 19.99 22.7202L20.57 22.3522C20.93 22.1135 21.36 21.8848 21.93 21.8848C22.5 21.8848 23.02 21.9842 23.5 22.1732C23.94 22.3422 24.36 22.6008 24.75 22.9589C25.06 23.2572 25.33 23.6053 25.57 24.0131C25.79 24.4009 25.95 24.7689 26.07 25.1269C26.17 25.4452 26.26 25.8032 26.33 26.1712C26.39 26.5591 26.43 26.8873 26.45 27.1956C26.47 27.4939 26.48 27.7923 26.48 28.1105V28.1205Z" fill="black"/>
</g>
<defs>
<clipPath id="clip0_6639_33683">
<rect width="20" height="20" fill="white" transform="translate(12 12)"/>
</clipPath>
</defs>
</svg>
