<svg width="44" height="44" viewBox="0 0 44 44" fill="none" xmlns="http://www.w3.org/2000/svg">
<rect width="44" height="44" rx="8" fill="#FFF6F3"/>
<path d="M28.927 15.9359C28.927 17.8277 27.4232 19.3719 25.5586 19.3719C23.6939 19.3719 22.2002 17.8277 22.2002 15.9359C22.2002 14.0441 23.7039 12.5 25.5586 12.5C27.4132 12.5 28.927 14.0441 28.927 15.9359Z" fill="#282B30"/>
<path d="M34.0002 27.3374C34.0002 27.951 33.519 28.4316 32.9175 28.4316H18.9126V26.2637H20.3462V23.9731C20.3462 21.9892 21.9 20.3633 23.7847 20.3633H27.103C28.9577 20.3633 30.4714 21.9994 30.4714 24.0037V26.2637H32.9075C33.519 26.2637 34.0002 26.7443 34.0002 27.3476V27.3374Z" fill="#282B30"/>
<path d="M18.3808 20.2016C18.3808 22.0934 16.8671 23.6273 15.0124 23.6273C13.1578 23.6273 11.644 22.0934 11.644 20.2016C11.644 18.3098 13.1578 16.7656 15.0124 16.7656C16.8671 16.7656 18.3808 18.3098 18.3808 20.2016Z" fill="#FB813E"/>
<path d="M10 26.8418C10 25.4611 11.1193 24.3418 12.5 24.3418H17.525C18.9057 24.3418 20.025 25.4611 20.025 26.8418V30.5C20.025 31.0523 19.5773 31.5 19.025 31.5H11C10.4477 31.5 10 31.0523 10 30.5V26.8418Z" fill="#FB813E"/>
</svg>
