<svg width="24" height="25" viewBox="0 0 24 25" fill="none" xmlns="http://www.w3.org/2000/svg">
<g id="phone">
<path id="Vector" d="M20.0405 16.6035L17.2126 16.2806C16.5335 16.2027 15.8654 16.4365 15.3867 16.9153L13.3382 18.9638C10.1873 17.3606 7.60425 14.7888 6.00102 11.6268L8.06071 9.56713C8.53945 9.08839 8.77333 8.42035 8.6954 7.7412L8.37248 4.93551C8.23888 3.81102 7.29253 2.96484 6.1569 2.96484H4.23081C2.97271 2.96484 1.92615 4.01134 2.00409 5.26944C2.59417 14.7775 10.1984 22.3707 19.6954 22.9608C20.9535 23.0387 22 21.9921 22 20.734V18.8079C22.0111 17.6834 21.165 16.7371 20.0405 16.6035Z" fill="#BBBCBD"/>
</g>
</svg>
